<?xml version="1.0" encoding="utf-8"?><svg viewBox="0 0 117 22" xmlns="http://www.w3.org/2000/svg" xmlns:xlink="http://www.w3.org/1999/xlink"><style>:root>svg{display:none}:root>svg:target{display:block}</style><svg viewBox="0 0 12 21.03" id="down-arrow" xmlns="http://www.w3.org/2000/svg"><defs><style>.acls-1{fill:#151515;fill-rule:evenodd}</style></defs><path id="adown" class="acls-1" d="M944.307 2800.72l4.983 5a.977.977 0 001.409 0l4.983-5a1 1 0 00-.7-1.71h-3.987v-13a1 1 0 10-1.993 0v13h-3.986a1 1 0 00-.709 1.71zm8.265.3L950 2803.6l-2.578-2.58h5.155z" transform="translate(-944 -2785)"/></svg><svg viewBox="0 0 117 22" id="logo" xmlns="http://www.w3.org/2000/svg"><defs><style>.bcls-1{fill:#151515;fill-rule:evenodd}</style></defs><path id="blogo_zonex" data-name="logo zonex" class="bcls-1" d="M893 35h17l-10 17h9v4h-17l10-16h-9v-5zm32 21a10.96 10.96 0 01-10.818-12.949l5.727 5.09a6.007 6.007 0 10-.115-6.071l-3.822-3.345A11 11 0 11925 56zm17 0V46l5 3v7h-5zm0-16l19 16V34h-5v11l-14-11v6zm41-6h-15v22h15v-4h-10v-5h9v-4h-9v-5h10v-4zm26 22h-6l-5-6.875L993 56h-6l8-11-8-11h6l5 6.875 5-6.875h6l-8 11z" transform="translate(-892 -34)"/></svg></svg>