<?xml version="1.0" encoding="iso-8859-1"?><svg viewBox="0 0 512 512" xmlns="http://www.w3.org/2000/svg" xmlns:xlink="http://www.w3.org/1999/xlink"><style>:root>svg{display:none}:root>svg:target{display:block}</style><svg viewBox="0 0 512.002 512.002" id="angel-right" xmlns="http://www.w3.org/2000/svg"><path d="M388.425 241.951L151.609 5.79c-7.759-7.733-20.321-7.72-28.067.04-7.74 7.759-7.72 20.328.04 28.067l222.72 222.105-222.728 222.104c-7.759 7.74-7.779 20.301-.04 28.061a19.8 19.8 0 0014.057 5.835 19.79 19.79 0 0014.017-5.795l236.817-236.155c3.737-3.718 5.834-8.778 5.834-14.05s-2.103-10.326-5.834-14.051z"/></svg><svg viewBox="0 0 329.269 329" id="close" xmlns="http://www.w3.org/2000/svg"><path d="M194.8 164.77L323.013 36.555c8.343-8.34 8.343-21.825 0-30.164-8.34-8.34-21.825-8.34-30.164 0L164.633 134.605 36.422 6.391c-8.344-8.34-21.824-8.34-30.164 0-8.344 8.34-8.344 21.824 0 30.164l128.21 128.215L6.259 292.984c-8.344 8.34-8.344 21.825 0 30.164a21.266 21.266 0 0015.082 6.25c5.46 0 10.922-2.09 15.082-6.25l128.21-128.214 128.216 128.214a21.273 21.273 0 0015.082 6.25c5.46 0 10.922-2.09 15.082-6.25 8.343-8.34 8.343-21.824 0-30.164zm0 0"/></svg><svg viewBox="0 0 12 21.03" id="down-arrow" xmlns="http://www.w3.org/2000/svg"><defs><style>.ccls-1{fill:#151515;fill-rule:evenodd}</style></defs><path id="cdown" class="ccls-1" d="M944.307 2800.72l4.983 5a.977.977 0 001.409 0l4.983-5a1 1 0 00-.7-1.71h-3.987v-13a1 1 0 10-1.993 0v13h-3.986a1 1 0 00-.709 1.71zm8.265.3L950 2803.6l-2.578-2.58h5.155z" transform="translate(-944 -2785)"/></svg><svg viewBox="0 0 512 512" id="left-arrow" xmlns="http://www.w3.org/2000/svg"><path d="M492 236H68.442l70.164-69.824c7.829-7.792 7.859-20.455.067-28.284-7.792-7.83-20.456-7.859-28.285-.068l-104.504 104-.018.019c-7.809 7.792-7.834 20.496-.002 28.314l.018.019 104.504 104c7.828 7.79 20.492 7.763 28.285-.068 7.792-7.829 7.762-20.492-.067-28.284L68.442 276H492c11.046 0 20-8.954 20-20s-8.954-20-20-20z"/></svg><svg viewBox="0 0 117 22" id="logo" xmlns="http://www.w3.org/2000/svg"><defs><style>.ecls-1{fill:#151515;fill-rule:evenodd}</style></defs><path id="elogo_zonex" data-name="logo zonex" class="ecls-1" d="M893 35h17l-10 17h9v4h-17l10-16h-9v-5zm32 21a10.96 10.96 0 01-10.818-12.949l5.727 5.09a6.007 6.007 0 10-.115-6.071l-3.822-3.345A11 11 0 11925 56zm17 0V46l5 3v7h-5zm0-16l19 16V34h-5v11l-14-11v6zm41-6h-15v22h15v-4h-10v-5h9v-4h-9v-5h10v-4zm26 22h-6l-5-6.875L993 56h-6l8-11-8-11h6l5 6.875 5-6.875h6l-8 11z" transform="translate(-892 -34)"/></svg><svg viewBox="0 0 12 2" id="minus" xmlns="http://www.w3.org/2000/svg"><defs><style>.fcls-1{fill:#858585}</style></defs><path id="fRectangle_43_copy_2" data-name="Rectangle 43 copy 2" class="fcls-1" d="M0 0h12v2H0z"/></svg><svg viewBox="0 0 12 12" id="plus" xmlns="http://www.w3.org/2000/svg"><defs><style>.gcls-1{fill:#858585;fill-rule:evenodd}</style></defs><path id="gRectangle_43_copy" data-name="Rectangle 43 copy" class="gcls-1" d="M1607 731h-5v5h-2v-5h-5v-2h5v-5h2v5h5v2z" transform="translate(-1595 -724)"/></svg><svg viewBox="0 0 512 512" id="right-arrow" xmlns="http://www.w3.org/2000/svg"><path d="M506.134 241.843l-.018-.019-104.504-104c-7.829-7.791-20.492-7.762-28.285.068-7.792 7.829-7.762 20.492.067 28.284L443.558 236H20c-11.046 0-20 8.954-20 20s8.954 20 20 20h423.557l-70.162 69.824c-7.829 7.792-7.859 20.455-.067 28.284 7.793 7.831 20.457 7.858 28.285.068l104.504-104 .018-.019c7.833-7.818 7.808-20.522-.001-28.314z"/></svg></svg>